# Model 1a96d308eef57195efaa61516f88b67
# Name dining card table    x   
# Vertices
mtllib 1a96d308eef57195efaa61516f88b67.mtl
v 2.8728e-013 34 0
vn 0 0 -1
vt 0 0
v 1 36 0
vn 0 0 -1
vt 0 0
v 1 34 0
vn 0 0 -1
vt 0 0
v 1 36 0
vn 0 0 -1
vt 0 0
v 2.8728e-013 34 0
vn 0 0 -1
vt 0 0
v 1.61648e-013 36 0
vn 0 0 -1
vt 0 0
v 2.8728e-013 34 0
vn -1 -6.28157e-014 -0
vt 0 0
v 1.61648e-013 36 28
vn -1 -6.28157e-014 -0
vt 0 0
v 1.61648e-013 36 0
vn -1 -6.28157e-014 -0
vt 0 0
v 1.61648e-013 36 28
vn -1 -6.28157e-014 -0
vt 0 0
v 2.8728e-013 34 0
vn -1 -6.28157e-014 -0
vt 0 0
v 2.8728e-013 34 28
vn -1 -6.28157e-014 -0
vt 0 0
v 2.23916e-012 9.89473e-027 0
vn -1 -5.74867e-014 0
vt 0 0
v 2.12419e-012 2 28
vn -1 -5.74867e-014 0
vt 0 0
v 2.12419e-012 2 0
vn -1 -5.74867e-014 0
vt 0 0
v 2.12419e-012 2 28
vn -1 -5.74867e-014 0
vt 0 0
v 2.23916e-012 9.89473e-027 0
vn -1 -5.74867e-014 0
vt 0 0
v 2.23916e-012 9.89473e-027 28
vn -1 -5.74867e-014 0
vt 0 0
v 2.23916e-012 9.89473e-027 0
vn 0 0 -1
vt 0 0
v 1 2 0
vn 0 0 -1
vt 0 0
v 1 5.75283e-014 0
vn 0 0 -1
vt 0 0
v 1 2 0
vn 0 0 -1
vt 0 0
v 2.23916e-012 9.89473e-027 0
vn 0 0 -1
vt 0 0
v 2.12419e-012 2 0
vn 0 0 -1
vt 0 0
v 2.23916e-012 9.89473e-027 0
vn 5.75283e-014 -1 0
vt 0 0
v 1 5.75283e-014 28
vn 5.75283e-014 -1 0
vt 0 0
v 2.23916e-012 9.89473e-027 28
vn 5.75283e-014 -1 0
vt 0 0
v 1 5.75283e-014 28
vn 5.75283e-014 -1 0
vt 0 0
v 2.23916e-012 9.89473e-027 0
vn 5.75283e-014 -1 0
vt 0 0
v 1 5.75283e-014 0
vn 5.75283e-014 -1 0
vt 0 0
v 35 2.01736e-012 0
vn 5.83749e-014 -1 0
vt 0 0
v 36 2.07574e-012 28
vn 5.83749e-014 -1 0
vt 0 0
v 35 2.01736e-012 28
vn 5.83749e-014 -1 0
vt 0 0
v 36 2.07574e-012 28
vn 5.83749e-014 -1 0
vt 0 0
v 35 2.01736e-012 0
vn 5.83749e-014 -1 0
vt 0 0
v 36 2.07574e-012 0
vn 5.83749e-014 -1 0
vt 0 0
v 35 2.01736e-012 0
vn -0 -0 -1
vt 0 0
v 36 2 0
vn -0 -0 -1
vt 0 0
v 36 2.07574e-012 0
vn -0 -0 -1
vt 0 0
v 36 2 0
vn -0 -0 -1
vt 0 0
v 35 2.01736e-012 0
vn -0 -0 -1
vt 0 0
v 35 2 0
vn -0 -0 -1
vt 0 0
v 36 2.07574e-012 28
vn 1 5.68434e-014 0
vt 0 0
v 36 2 0
vn 1 5.68434e-014 0
vt 0 0
v 36 2 28
vn 1 5.68434e-014 0
vt 0 0
v 36 2 0
vn 1 5.68434e-014 0
vt 0 0
v 36 2.07574e-012 28
vn 1 5.68434e-014 0
vt 0 0
v 36 2.07574e-012 0
vn 1 5.68434e-014 0
vt 0 0
v 36 34 28
vn 1 6.03961e-014 0
vt 0 0
v 36 36 0
vn 1 6.03961e-014 0
vt 0 0
v 36 36 28
vn 1 6.03961e-014 0
vt 0 0
v 36 36 0
vn 1 6.03961e-014 0
vt 0 0
v 36 34 28
vn 1 6.03961e-014 0
vt 0 0
v 36 34 0
vn 1 6.03961e-014 0
vt 0 0
v 35 34 0
vn -0 -0 -1
vt 0 0
v 36 36 0
vn -0 -0 -1
vt 0 0
v 36 34 0
vn -0 -0 -1
vt 0 0
v 36 36 0
vn -0 -0 -1
vt 0 0
v 35 34 0
vn -0 -0 -1
vt 0 0
v 35 36 0
vn -0 -0 -1
vt 0 0
v 1 36 0
vn -4.26326e-014 1 0
vt 0 0
v 1.61648e-013 36 28
vn -4.26326e-014 1 0
vt 0 0
v 1 36 28
vn -4.26326e-014 1 0
vt 0 0
v 1.61648e-013 36 28
vn -4.26326e-014 1 0
vt 0 0
v 1 36 0
vn -4.26326e-014 1 0
vt 0 0
v 1.61648e-013 36 0
vn -4.26326e-014 1 0
vt 0 0
v 36 36 0
vn -3.55271e-014 1 0
vt 0 0
v 35 36 28
vn -3.55271e-014 1 0
vt 0 0
v 36 36 28
vn -3.55271e-014 1 0
vt 0 0
v 35 36 28
vn -3.55271e-014 1 0
vt 0 0
v 36 36 0
vn -3.55271e-014 1 0
vt 0 0
v 35 36 0
vn -3.55271e-014 1 0
vt 0 0
v 36 36 30
vn 0 0 1
vt 0 0
v 2.06863e-012 0 30
vn 0 0 1
vt 0 0
v 36 2.07574e-012 30
vn 0 0 1
vt 0 0
v 2.06863e-012 0 30
vn 0 0 1
vt 0 0
v 36 36 30
vn 0 0 1
vt 0 0
v 0 36 30
vn 0 0 1
vt 0 0
v 1 34 28
vn 1 0 0
vt 0 0
v 1 36 0
vn 1 0 0
vt 0 0
v 1 36 28
vn 1 0 0
vt 0 0
v 1 36 0
vn 1 0 0
vt 0 0
v 1 34 28
vn 1 0 0
vt 0 0
v 1 34 0
vn 1 0 0
vt 0 0
v 2.8728e-013 34 0
vn -0 -1 -0
vt 0 0
v 1 34 28
vn -0 -1 -0
vt 0 0
v 2.8728e-013 34 28
vn -0 -1 -0
vt 0 0
v 1 34 28
vn -0 -1 -0
vt 0 0
v 2.8728e-013 34 0
vn -0 -1 -0
vt 0 0
v 1 34 0
vn -0 -1 -0
vt 0 0
v 2.8728e-013 34 28
vn -1 -5.7462e-014 -0
vt 0 0
v 0 36 30
vn -1 -5.7462e-014 -0
vt 0 0
v 1.61648e-013 36 28
vn -1 -5.7462e-014 -0
vt 0 0
v 2.12419e-012 2 28
vn -1 -5.7462e-014 -0
vt 0 0
v 0 36 30
vn -1 -5.7462e-014 -0
vt 0 0
v 2.8728e-013 34 28
vn -1 -5.7462e-014 -0
vt 0 0
v 2.23916e-012 9.89473e-027 28
vn -1 -5.7462e-014 -0
vt 0 0
v 0 36 30
vn -1 -5.7462e-014 -0
vt 0 0
v 2.12419e-012 2 28
vn -1 -5.7462e-014 -0
vt 0 0
v 0 36 30
vn -1 -5.7462e-014 -0
vt 0 0
v 2.23916e-012 9.89473e-027 28
vn -1 -5.7462e-014 -0
vt 0 0
v 2.06863e-012 0 30
vn -1 -5.7462e-014 -0
vt 0 0
v 1 2 0
vn 0 1 0
vt 0 0
v 2.12419e-012 2 28
vn 0 1 0
vt 0 0
v 1 2 28
vn 0 1 0
vt 0 0
v 2.12419e-012 2 28
vn 0 1 0
vt 0 0
v 1 2 0
vn 0 1 0
vt 0 0
v 2.12419e-012 2 0
vn 0 1 0
vt 0 0
v 1 5.75283e-014 28
vn 1 0 0
vt 0 0
v 1 2 0
vn 1 0 0
vt 0 0
v 1 2 28
vn 1 0 0
vt 0 0
v 1 2 0
vn 1 0 0
vt 0 0
v 1 5.75283e-014 28
vn 1 0 0
vt 0 0
v 1 5.75283e-014 0
vn 1 0 0
vt 0 0
v 2.23916e-012 9.89473e-027 28
vn 5.76594e-014 -1 0
vt 0 0
v 36 2.07574e-012 30
vn 5.76594e-014 -1 0
vt 0 0
v 2.06863e-012 0 30
vn 5.76594e-014 -1 0
vt 0 0
v 1 5.75283e-014 28
vn 5.76594e-014 -1 0
vt 0 0
v 36 2.07574e-012 30
vn 5.76594e-014 -1 0
vt 0 0
v 2.23916e-012 9.89473e-027 28
vn 5.76594e-014 -1 0
vt 0 0
v 35 2.01736e-012 28
vn 5.76594e-014 -1 0
vt 0 0
v 36 2.07574e-012 30
vn 5.76594e-014 -1 0
vt 0 0
v 1 5.75283e-014 28
vn 5.76594e-014 -1 0
vt 0 0
v 36 2.07574e-012 30
vn 5.76594e-014 -1 0
vt 0 0
v 35 2.01736e-012 28
vn 5.76594e-014 -1 0
vt 0 0
v 36 2.07574e-012 28
vn 5.76594e-014 -1 0
vt 0 0
v 35 2.01736e-012 0
vn -1 0 0
vt 0 0
v 35 2 28
vn -1 0 0
vt 0 0
v 35 2 0
vn -1 0 0
vt 0 0
v 35 2 28
vn -1 0 0
vt 0 0
v 35 2.01736e-012 0
vn -1 0 0
vt 0 0
v 35 2.01736e-012 28
vn -1 0 0
vt 0 0
v 36 2 0
vn 0 1 0
vt 0 0
v 35 2 28
vn 0 1 0
vt 0 0
v 36 2 28
vn 0 1 0
vt 0 0
v 35 2 28
vn 0 1 0
vt 0 0
v 36 2 0
vn 0 1 0
vt 0 0
v 35 2 0
vn 0 1 0
vt 0 0
v 36 36 30
vn 1 5.76329e-014 0
vt 0 0
v 36 34 28
vn 1 5.76329e-014 0
vt 0 0
v 36 36 28
vn 1 5.76329e-014 0
vt 0 0
v 36 36 30
vn 1 5.76329e-014 0
vt 0 0
v 36 2 28
vn 1 5.76329e-014 0
vt 0 0
v 36 34 28
vn 1 5.76329e-014 0
vt 0 0
v 36 2.07574e-012 30
vn 1 5.76329e-014 0
vt 0 0
v 36 2 28
vn 1 5.76329e-014 0
vt 0 0
v 36 36 30
vn 1 5.76329e-014 0
vt 0 0
v 36 2 28
vn 1 5.76329e-014 0
vt 0 0
v 36 2.07574e-012 30
vn 1 5.76329e-014 0
vt 0 0
v 36 2.07574e-012 28
vn 1 5.76329e-014 0
vt 0 0
v 35 34 0
vn 0 -1 0
vt 0 0
v 36 34 28
vn 0 -1 0
vt 0 0
v 35 34 28
vn 0 -1 0
vt 0 0
v 36 34 28
vn 0 -1 0
vt 0 0
v 35 34 0
vn 0 -1 0
vt 0 0
v 36 34 0
vn 0 -1 0
vt 0 0
v 35 34 0
vn -1 0 0
vt 0 0
v 35 36 28
vn -1 0 0
vt 0 0
v 35 36 0
vn -1 0 0
vt 0 0
v 35 36 28
vn -1 0 0
vt 0 0
v 35 34 0
vn -1 0 0
vt 0 0
v 35 34 28
vn -1 0 0
vt 0 0
v 36 36 28
vn -5.76329e-014 1 0
vt 0 0
v 0 36 30
vn -5.76329e-014 1 0
vt 0 0
v 36 36 30
vn -5.76329e-014 1 0
vt 0 0
v 35 36 28
vn -5.76329e-014 1 0
vt 0 0
v 0 36 30
vn -5.76329e-014 1 0
vt 0 0
v 36 36 28
vn -5.76329e-014 1 0
vt 0 0
v 1 36 28
vn -5.76329e-014 1 0
vt 0 0
v 0 36 30
vn -5.76329e-014 1 0
vt 0 0
v 35 36 28
vn -5.76329e-014 1 0
vt 0 0
v 0 36 30
vn -5.76329e-014 1 0
vt 0 0
v 1 36 28
vn -5.76329e-014 1 0
vt 0 0
v 1.61648e-013 36 28
vn -5.76329e-014 1 0
vt 0 0
v 2.12419e-012 2 28
vn 0 0 -1
vt 0 0
v 1 34 28
vn 0 0 -1
vt 0 0
v 1 2 28
vn 0 0 -1
vt 0 0
v 1 34 28
vn 0 0 -1
vt 0 0
v 2.12419e-012 2 28
vn 0 0 -1
vt 0 0
v 2.8728e-013 34 28
vn 0 0 -1
vt 0 0
v 35 2.01736e-012 28
vn 0 0 -1
vt 0 0
v 35 34 28
vn 0 0 -1
vt 0 0
v 35 2 28
vn 0 0 -1
vt 0 0
v 1 5.75283e-014 28
vn 0 0 -1
vt 0 0
v 35 34 28
vn 0 0 -1
vt 0 0
v 35 2.01736e-012 28
vn 0 0 -1
vt 0 0
v 1 5.75283e-014 28
vn 0 0 -1
vt 0 0
v 35 36 28
vn 0 0 -1
vt 0 0
v 35 34 28
vn 0 0 -1
vt 0 0
v 1 2 28
vn 0 0 -1
vt 0 0
v 35 36 28
vn 0 0 -1
vt 0 0
v 1 5.75283e-014 28
vn 0 0 -1
vt 0 0
v 1 34 28
vn 0 0 -1
vt 0 0
v 35 36 28
vn 0 0 -1
vt 0 0
v 1 2 28
vn 0 0 -1
vt 0 0
v 35 36 28
vn 0 0 -1
vt 0 0
v 1 34 28
vn 0 0 -1
vt 0 0
v 1 36 28
vn 0 0 -1
vt 0 0
v 35 2 28
vn 0 0 -1
vt 0 0
v 36 34 28
vn 0 0 -1
vt 0 0
v 36 2 28
vn 0 0 -1
vt 0 0
v 36 34 28
vn 0 0 -1
vt 0 0
v 35 2 28
vn 0 0 -1
vt 0 0
v 35 34 28
vn 0 0 -1
vt 0 0
g dining card table    x   
usemtl m0
f 1//1 2//2 3//3
f 4//4 5//5 6//6
f 7//7 8//8 9//9
f 10//10 11//11 12//12
f 13//13 14//14 15//15
f 16//16 17//17 18//18
f 19//19 20//20 21//21
f 22//22 23//23 24//24
f 25//25 26//26 27//27
f 28//28 29//29 30//30
f 31//31 32//32 33//33
f 34//34 35//35 36//36
f 37//37 38//38 39//39
f 40//40 41//41 42//42
f 43//43 44//44 45//45
f 46//46 47//47 48//48
f 49//49 50//50 51//51
f 52//52 53//53 54//54
f 55//55 56//56 57//57
f 58//58 59//59 60//60
f 61//61 62//62 63//63
f 64//64 65//65 66//66
f 67//67 68//68 69//69
f 70//70 71//71 72//72
f 73//73 74//74 75//75
f 76//76 77//77 78//78
f 79//79 80//80 81//81
f 82//82 83//83 84//84
f 85//85 86//86 87//87
f 88//88 89//89 90//90
f 91//91 92//92 93//93
f 94//94 95//95 96//96
f 97//97 98//98 99//99
f 100//100 101//101 102//102
f 103//103 104//104 105//105
f 106//106 107//107 108//108
f 109//109 110//110 111//111
f 112//112 113//113 114//114
f 115//115 116//116 117//117
f 118//118 119//119 120//120
f 121//121 122//122 123//123
f 124//124 125//125 126//126
f 127//127 128//128 129//129
f 130//130 131//131 132//132
f 133//133 134//134 135//135
f 136//136 137//137 138//138
f 139//139 140//140 141//141
f 142//142 143//143 144//144
f 145//145 146//146 147//147
f 148//148 149//149 150//150
f 151//151 152//152 153//153
f 154//154 155//155 156//156
f 157//157 158//158 159//159
f 160//160 161//161 162//162
f 163//163 164//164 165//165
f 166//166 167//167 168//168
f 169//169 170//170 171//171
f 172//172 173//173 174//174
f 175//175 176//176 177//177
f 178//178 179//179 180//180
f 181//181 182//182 183//183
f 184//184 185//185 186//186
f 187//187 188//188 189//189
f 190//190 191//191 192//192
f 193//193 194//194 195//195
f 196//196 197//197 198//198
f 199//199 200//200 201//201
f 202//202 203//203 204//204
